<?xml version="1.0" encoding="UTF-8" standalone="no"?>
<!-- Created with Inkscape (http://www.inkscape.org/) -->

<svg
   xmlns:dc="http://purl.org/dc/elements/1.1/"
   xmlns:cc="http://creativecommons.org/ns#"
   xmlns:rdf="http://www.w3.org/1999/02/22-rdf-syntax-ns#"
   xmlns:svg="http://www.w3.org/2000/svg"
   xmlns="http://www.w3.org/2000/svg"
   xmlns:xlink="http://www.w3.org/1999/xlink"
   xmlns:sodipodi="http://sodipodi.sourceforge.net/DTD/sodipodi-0.dtd"
   xmlns:inkscape="http://www.inkscape.org/namespaces/inkscape"
   width="498"
   height="89"
   viewBox="0 0 498.00001 89"
   id="svg2"
   version="1.1"
   inkscape:version="0.91 r13725"
   sodipodi:docname="panamaglass.svg">
  <defs
     id="defs4">
    <linearGradient
       inkscape:collect="always"
       id="linearGradient3362">
      <stop
         style="stop-color:#d8f1f7;stop-opacity:1"
         offset="0"
         id="stop3364" />
      <stop
         id="stop4193"
         offset="0.31948712"
         style="stop-color:#3c9cb8;stop-opacity:1" />
      <stop
         id="stop4191"
         offset="0.55878997"
         style="stop-color:#64adc6;stop-opacity:1" />
      <stop
         style="stop-color:#d8f1f7;stop-opacity:1"
         offset="1"
         id="stop3366" />
    </linearGradient>
    <linearGradient
       inkscape:collect="always"
       xlink:href="#linearGradient3362"
       id="linearGradient3381"
       x1="142.93658"
       y1="1018.522"
       x2="143.44167"
       y2="958.41797"
       gradientUnits="userSpaceOnUse" />
    <linearGradient
       inkscape:collect="always"
       xlink:href="#linearGradient3362"
       id="linearGradient4317"
       gradientUnits="userSpaceOnUse"
       x1="142.93658"
       y1="1018.522"
       x2="143.44167"
       y2="958.41797" />
    <linearGradient
       inkscape:collect="always"
       xlink:href="#linearGradient3362"
       id="linearGradient4319"
       gradientUnits="userSpaceOnUse"
       x1="142.93658"
       y1="1018.522"
       x2="143.44167"
       y2="958.41797" />
    <linearGradient
       inkscape:collect="always"
       xlink:href="#linearGradient3362"
       id="linearGradient4321"
       gradientUnits="userSpaceOnUse"
       x1="142.93658"
       y1="1018.522"
       x2="143.44167"
       y2="958.41797" />
    <linearGradient
       inkscape:collect="always"
       xlink:href="#linearGradient3362"
       id="linearGradient4323"
       gradientUnits="userSpaceOnUse"
       x1="142.93658"
       y1="1018.522"
       x2="143.44167"
       y2="958.41797" />
    <linearGradient
       inkscape:collect="always"
       xlink:href="#linearGradient3362"
       id="linearGradient4325"
       gradientUnits="userSpaceOnUse"
       x1="142.93658"
       y1="1018.522"
       x2="143.44167"
       y2="958.41797" />
    <linearGradient
       inkscape:collect="always"
       xlink:href="#linearGradient3362"
       id="linearGradient4327"
       gradientUnits="userSpaceOnUse"
       x1="142.93658"
       y1="1018.522"
       x2="143.44167"
       y2="958.41797" />
    <linearGradient
       inkscape:collect="always"
       xlink:href="#linearGradient3362"
       id="linearGradient4329"
       gradientUnits="userSpaceOnUse"
       x1="142.93658"
       y1="1018.522"
       x2="143.44167"
       y2="958.41797" />
    <linearGradient
       inkscape:collect="always"
       xlink:href="#linearGradient3362"
       id="linearGradient4331"
       gradientUnits="userSpaceOnUse"
       x1="142.93658"
       y1="1018.522"
       x2="143.44167"
       y2="958.41797" />
    <linearGradient
       inkscape:collect="always"
       xlink:href="#linearGradient3362"
       id="linearGradient4333"
       gradientUnits="userSpaceOnUse"
       x1="142.93658"
       y1="1018.522"
       x2="143.44167"
       y2="958.41797" />
  </defs>
  <sodipodi:namedview
     id="base"
     pagecolor="#ffffff"
     bordercolor="#666666"
     borderopacity="1.0"
     inkscape:pageopacity="0.0"
     inkscape:pageshadow="2"
     inkscape:zoom="2.56"
     inkscape:cx="253.32159"
     inkscape:cy="13.869765"
     inkscape:document-units="px"
     inkscape:current-layer="layer1"
     showgrid="false"
     units="px"
     inkscape:window-width="1867"
     inkscape:window-height="1056"
     inkscape:window-x="53"
     inkscape:window-y="24"
     inkscape:window-maximized="1"
     showguides="true" />
  <metadata
     id="metadata7">
    <rdf:RDF>
      <cc:Work
         rdf:about="">
        <dc:format>image/svg+xml</dc:format>
        <dc:type
           rdf:resource="http://purl.org/dc/dcmitype/StillImage" />
        <dc:title></dc:title>
      </cc:Work>
    </rdf:RDF>
  </metadata>
  <g
     transform="translate(0,-963.36216)"
     id="g4241"
     inkscape:groupmode="layer"
     inkscape:label="Down">
    <g
       id="g4243"
       style="font-style:normal;font-weight:normal;font-size:40px;line-height:125%;font-family:sans-serif;letter-spacing:0px;word-spacing:0px;fill:#57a2bd;fill-opacity:1;stroke:none;stroke-width:1px;stroke-linecap:butt;stroke-linejoin:miter;stroke-opacity:1"
       transform="matrix(1.6577378,0,0,1.6780432,-16.866702,-653.31124)">
      <g
         id="g4245"
         style="fill:#57a2bd;fill-opacity:1">
        <g
           id="g4247"
           style="fill:#57a2bd;fill-opacity:1">
          <path
             id="path4249"
             style="font-style:normal;font-variant:normal;font-weight:bold;font-stretch:normal;font-size:72.5px;font-family:roboto;-inkscape-font-specification:'roboto Bold';fill:#57a2bd;fill-opacity:1"
             d="m 22.661278,998.32098 0,18.16042 -10.620117,0 0,-51.54298 20.107421,0 q 5.805665,0 10.195313,2.12402 4.425049,2.12402 6.796875,6.05347 2.371826,3.89404 2.371826,8.88549 0,7.57569 -5.203857,11.96534 -5.168457,4.35424 -14.337158,4.35424 l -9.310303,0 z m 0,-8.60229 9.487304,0 q 4.212647,0 6.407471,-1.98242 2.230225,-1.98242 2.230225,-5.66407 0,-3.78784 -2.230225,-6.12426 -2.230224,-2.33643 -6.159668,-2.40723 l -9.735107,0 0,16.17798 z"
             inkscape:connector-curvature="0" />
          <path
             id="path4251"
             style="font-style:normal;font-variant:normal;font-weight:bold;font-stretch:normal;font-size:72.5px;font-family:roboto;-inkscape-font-specification:'roboto Bold';fill:#57a2bd;fill-opacity:1"
             d="m 81.638329,1005.8613 -18.620606,0 -3.540039,10.6201 -11.292725,0 19.187012,-51.54298 9.841309,0 19.293213,51.54298 -11.292725,0 -3.575439,-10.6201 z m -15.753174,-8.60233 12.885742,0 -6.478272,-19.29321 -6.40747,19.29321 z"
             inkscape:connector-curvature="0" />
          <path
             id="path4253"
             style="font-style:normal;font-variant:normal;font-weight:bold;font-stretch:normal;font-size:72.5px;font-family:roboto;-inkscape-font-specification:'roboto Bold';fill:#57a2bd;fill-opacity:1"
             d="m 143.30581,1016.4814 -10.62012,0 -20.67383,-33.91359 0,33.91359 -10.62011,0 0,-51.54298 10.62011,0 20.70923,33.98437 0,-33.98437 10.58472,0 0,51.54298 z"
             inkscape:connector-curvature="0" />
          <path
             id="path4255"
             style="font-style:normal;font-variant:normal;font-weight:bold;font-stretch:normal;font-size:72.5px;font-family:roboto;-inkscape-font-specification:'roboto Bold';fill:#57a2bd;fill-opacity:1"
             d="m 182.45864,1005.8613 -18.6206,0 -3.54004,10.6201 -11.29273,0 19.18701,-51.54298 9.84131,0 19.29322,51.54298 -11.29273,0 -3.57544,-10.6201 z m -15.75317,-8.60233 12.88574,0 -6.47827,-19.29321 -6.40747,19.29321 z"
             inkscape:connector-curvature="0" />
          <path
             id="path4257"
             style="font-style:normal;font-variant:normal;font-weight:bold;font-stretch:normal;font-size:72.5px;font-family:roboto;-inkscape-font-specification:'roboto Bold';fill:#57a2bd;fill-opacity:1"
             d="m 216.08901,964.93842 13.23975,37.38278 13.16894,-37.38278 13.94776,0 0,51.54298 -10.65552,0 0,-14.0894 1.06201,-24.32004 -13.91235,38.40944 -7.29248,0 -13.87696,-38.37404 1.06202,24.28464 0,14.0894 -10.62012,0 0,-51.54298 13.87695,0 z"
             inkscape:connector-curvature="0" />
          <path
             id="path4259"
             style="font-style:normal;font-variant:normal;font-weight:bold;font-stretch:normal;font-size:72.5px;font-family:roboto;-inkscape-font-specification:'roboto Bold';fill:#57a2bd;fill-opacity:1"
             d="m 295.59829,1005.8613 -18.62061,0 -3.54004,10.6201 -11.29272,0 19.18701,-51.54298 9.84131,0 19.29321,51.54298 -11.29272,0 -3.57544,-10.6201 z m -15.75317,-8.60233 12.88574,0 -6.47827,-19.29321 -6.40747,19.29321 z"
             inkscape:connector-curvature="0" />
        </g>
      </g>
    </g>
  </g>
  <g
     inkscape:label="Upper"
     inkscape:groupmode="layer"
     id="g4279"
     transform="translate(0,-963.36216)">
    <g
       transform="matrix(1.6577378,0,0,1.66586,-19.889233,-644.01326)"
       style="font-style:normal;font-weight:normal;font-size:40px;line-height:125%;font-family:sans-serif;letter-spacing:0px;word-spacing:0px;opacity:0.5;fill:#74becf;fill-opacity:1;stroke:none;stroke-width:1px;stroke-linecap:butt;stroke-linejoin:miter;stroke-opacity:1"
       id="g4281">
      <g
         style="fill:#74becf;fill-opacity:1"
         id="g4283">
        <g
           style="fill:#74becf;fill-opacity:1"
           id="g4285">
          <path
             inkscape:connector-curvature="0"
             d="m 22.661278,998.32098 0,18.16042 -10.620117,0 0,-51.54298 20.107421,0 q 5.805665,0 10.195313,2.12402 4.425049,2.12402 6.796875,6.05347 2.371826,3.89404 2.371826,8.88549 0,7.57569 -5.203857,11.96534 -5.168457,4.35424 -14.337158,4.35424 l -9.310303,0 z m 0,-8.60229 9.487304,0 q 4.212647,0 6.407471,-1.98242 2.230225,-1.98242 2.230225,-5.66407 0,-3.78784 -2.230225,-6.12426 -2.230224,-2.33643 -6.159668,-2.40723 l -9.735107,0 0,16.17798 z"
             style="font-style:normal;font-variant:normal;font-weight:bold;font-stretch:normal;font-size:72.5px;font-family:roboto;-inkscape-font-specification:'roboto Bold';fill:#74becf;fill-opacity:1"
             id="path4287" />
          <path
             inkscape:connector-curvature="0"
             d="m 81.638329,1005.8613 -18.620606,0 -3.540039,10.6201 -11.292725,0 19.187012,-51.54298 9.841309,0 19.293213,51.54298 -11.292725,0 -3.575439,-10.6201 z m -15.753174,-8.60233 12.885742,0 -6.478272,-19.29321 -6.40747,19.29321 z"
             style="font-style:normal;font-variant:normal;font-weight:bold;font-stretch:normal;font-size:72.5px;font-family:roboto;-inkscape-font-specification:'roboto Bold';fill:#74becf;fill-opacity:1"
             id="path4289" />
          <path
             inkscape:connector-curvature="0"
             d="m 143.30581,1016.4814 -10.62012,0 -20.67383,-33.91359 0,33.91359 -10.62011,0 0,-51.54298 10.62011,0 20.70923,33.98437 0,-33.98437 10.58472,0 0,51.54298 z"
             style="font-style:normal;font-variant:normal;font-weight:bold;font-stretch:normal;font-size:72.5px;font-family:roboto;-inkscape-font-specification:'roboto Bold';fill:#74becf;fill-opacity:1"
             id="path4291" />
          <path
             inkscape:connector-curvature="0"
             d="m 182.45864,1005.8613 -18.6206,0 -3.54004,10.6201 -11.29273,0 19.18701,-51.54298 9.84131,0 19.29322,51.54298 -11.29273,0 -3.57544,-10.6201 z m -15.75317,-8.60233 12.88574,0 -6.47827,-19.29321 -6.40747,19.29321 z"
             style="font-style:normal;font-variant:normal;font-weight:bold;font-stretch:normal;font-size:72.5px;font-family:roboto;-inkscape-font-specification:'roboto Bold';fill:#74becf;fill-opacity:1"
             id="path4293" />
          <path
             inkscape:connector-curvature="0"
             d="m 216.08901,964.93842 13.23975,37.38278 13.16894,-37.38278 13.94776,0 0,51.54298 -10.65552,0 0,-14.0894 1.06201,-24.32004 -13.91235,38.40944 -7.29248,0 -13.87696,-38.37404 1.06202,24.28464 0,14.0894 -10.62012,0 0,-51.54298 13.87695,0 z"
             style="font-style:normal;font-variant:normal;font-weight:bold;font-stretch:normal;font-size:72.5px;font-family:roboto;-inkscape-font-specification:'roboto Bold';fill:#74becf;fill-opacity:1"
             id="path4295" />
          <path
             inkscape:connector-curvature="0"
             d="m 295.59829,1005.8613 -18.62061,0 -3.54004,10.6201 -11.29272,0 19.18701,-51.54298 9.84131,0 19.29321,51.54298 -11.29272,0 -3.57544,-10.6201 z m -15.75317,-8.60233 12.88574,0 -6.47827,-19.29321 -6.40747,19.29321 z"
             style="font-style:normal;font-variant:normal;font-weight:bold;font-stretch:normal;font-size:72.5px;font-family:roboto;-inkscape-font-specification:'roboto Bold';fill:#74becf;fill-opacity:1"
             id="path4297" />
        </g>
      </g>
    </g>
  </g>
  <g
     inkscape:label="Up"
     inkscape:groupmode="layer"
     id="layer1"
     transform="translate(0,-963.36216)"
     style="display:inline">
    <g
       style="font-style:normal;font-weight:normal;font-size:40px;line-height:125%;font-family:sans-serif;letter-spacing:0px;word-spacing:0px;fill:url(#linearGradient4333);fill-opacity:1;stroke:none;stroke-width:1px;stroke-linecap:butt;stroke-linejoin:miter;stroke-opacity:1"
       id="text3336"
       transform="matrix(1.6577378,0,0,1.6577378,-18.227288,-634.62599)">
      <g
         id="g4208"
         style="fill:url(#linearGradient4331)">
        <g
           id="g4216"
           style="fill:url(#linearGradient4329)">
          <path
             d="m 22.661278,998.32098 0,18.16042 -10.620117,0 0,-51.54298 20.107421,0 q 5.805665,0 10.195313,2.12402 4.425049,2.12402 6.796875,6.05347 2.371826,3.89404 2.371826,8.88549 0,7.57569 -5.203857,11.96534 -5.168457,4.35424 -14.337158,4.35424 l -9.310303,0 z m 0,-8.60229 9.487304,0 q 4.212647,0 6.407471,-1.98242 2.230225,-1.98242 2.230225,-5.66407 0,-3.78784 -2.230225,-6.12426 -2.230224,-2.33643 -6.159668,-2.40723 l -9.735107,0 0,16.17798 z"
             style="font-style:normal;font-variant:normal;font-weight:bold;font-stretch:normal;font-size:72.5px;font-family:roboto;-inkscape-font-specification:'roboto Bold';fill:url(#linearGradient4317);fill-opacity:1"
             id="path4196"
             inkscape:connector-curvature="0" />
          <path
             d="m 81.638329,1005.8613 -18.620606,0 -3.540039,10.6201 -11.292725,0 19.187012,-51.54298 9.841309,0 19.293213,51.54298 -11.292725,0 -3.575439,-10.6201 z m -15.753174,-8.60233 12.885742,0 -6.478272,-19.29321 -6.40747,19.29321 z"
             style="font-style:normal;font-variant:normal;font-weight:bold;font-stretch:normal;font-size:72.5px;font-family:roboto;-inkscape-font-specification:'roboto Bold';fill:url(#linearGradient4319);fill-opacity:1"
             id="path4198"
             inkscape:connector-curvature="0" />
          <path
             d="m 143.30581,1016.4814 -10.62012,0 -20.67383,-33.91359 0,33.91359 -10.62011,0 0,-51.54298 10.62011,0 20.70923,33.98437 0,-33.98437 10.58472,0 0,51.54298 z"
             style="font-style:normal;font-variant:normal;font-weight:bold;font-stretch:normal;font-size:72.5px;font-family:roboto;-inkscape-font-specification:'roboto Bold';fill:url(#linearGradient4321);fill-opacity:1"
             id="path4200"
             inkscape:connector-curvature="0" />
          <path
             d="m 182.45864,1005.8613 -18.6206,0 -3.54004,10.6201 -11.29273,0 19.18701,-51.54298 9.84131,0 19.29322,51.54298 -11.29273,0 -3.57544,-10.6201 z m -15.75317,-8.60233 12.88574,0 -6.47827,-19.29321 -6.40747,19.29321 z"
             style="font-style:normal;font-variant:normal;font-weight:bold;font-stretch:normal;font-size:72.5px;font-family:roboto;-inkscape-font-specification:'roboto Bold';fill:url(#linearGradient4323);fill-opacity:1"
             id="path4202"
             inkscape:connector-curvature="0" />
          <path
             d="m 216.08901,964.93842 13.23975,37.38278 13.16894,-37.38278 13.94776,0 0,51.54298 -10.65552,0 0,-14.0894 1.06201,-24.32004 -13.91235,38.40944 -7.29248,0 -13.87696,-38.37404 1.06202,24.28464 0,14.0894 -10.62012,0 0,-51.54298 13.87695,0 z"
             style="font-style:normal;font-variant:normal;font-weight:bold;font-stretch:normal;font-size:72.5px;font-family:roboto;-inkscape-font-specification:'roboto Bold';fill:url(#linearGradient4325);fill-opacity:1"
             id="path4204"
             inkscape:connector-curvature="0" />
          <path
             d="m 295.59829,1005.8613 -18.62061,0 -3.54004,10.6201 -11.29272,0 19.18701,-51.54298 9.84131,0 19.29321,51.54298 -11.29272,0 -3.57544,-10.6201 z m -15.75317,-8.60233 12.88574,0 -6.47827,-19.29321 -6.40747,19.29321 z"
             style="font-style:normal;font-variant:normal;font-weight:bold;font-stretch:normal;font-size:72.5px;font-family:roboto;-inkscape-font-specification:'roboto Bold';fill:url(#linearGradient4327);fill-opacity:1"
             id="path4206"
             inkscape:connector-curvature="0" />
        </g>
      </g>
    </g>
  </g>
</svg>
