<?xml version="1.0" encoding="UTF-8" standalone="no"?>
<!-- Created with Inkscape (http://www.inkscape.org/) -->

<svg
   xmlns:dc="http://purl.org/dc/elements/1.1/"
   xmlns:cc="http://creativecommons.org/ns#"
   xmlns:rdf="http://www.w3.org/1999/02/22-rdf-syntax-ns#"
   xmlns:svg="http://www.w3.org/2000/svg"
   xmlns="http://www.w3.org/2000/svg"
   xmlns:sodipodi="http://sodipodi.sourceforge.net/DTD/sodipodi-0.dtd"
   xmlns:inkscape="http://www.inkscape.org/namespaces/inkscape"
   id="svg2"
   version="1.1"
   inkscape:version="0.91 r13725"
   xml:space="preserve"
   width="549"
   height="135"
   viewBox="0 0 549 135"
   sodipodi:docname="ZenCash.svg"><metadata
     id="metadata8"><rdf:RDF><cc:Work
         rdf:about=""><dc:format>image/svg+xml</dc:format><dc:type
           rdf:resource="http://purl.org/dc/dcmitype/StillImage" /><dc:title></dc:title></cc:Work></rdf:RDF></metadata><defs
     id="defs6"><clipPath
       clipPathUnits="userSpaceOnUse"
       id="clipPath56"><path
         d="m 0,108 439.2,0 0,-108 L 0,0 0,108 Z"
         id="path58"
         inkscape:connector-curvature="0" /></clipPath></defs><sodipodi:namedview
     pagecolor="#ffffff"
     bordercolor="#666666"
     borderopacity="1"
     objecttolerance="10"
     gridtolerance="10"
     guidetolerance="10"
     inkscape:pageopacity="0"
     inkscape:pageshadow="2"
     inkscape:window-width="1867"
     inkscape:window-height="1056"
     id="namedview4"
     showgrid="false"
     inkscape:zoom="0.7704918"
     inkscape:cx="274.5"
     inkscape:cy="67.5"
     inkscape:window-x="53"
     inkscape:window-y="24"
     inkscape:window-maximized="1"
     inkscape:current-layer="g10" /><g
     id="g10"
     inkscape:groupmode="layer"
     inkscape:label="ZenCash Logo - CMYK"
     transform="matrix(1.25,0,0,-1.25,0,135)"><g
       id="g12"
       transform="translate(66.4553,75.8162)"><path
         d="M 0,0 25.563,14.85 -0.022,29.664 -25.585,14.813 0,0 Z"
         style="fill:#294573;fill-opacity:1;fill-rule:nonzero;stroke:none"
         id="path14"
         inkscape:connector-curvature="0" /></g><g
       id="g16"
       transform="translate(29.1848,53.7845)"><path
         d="M 0,0 -25.585,14.814 -25.564,-14.85 0.021,-29.664 0,0 Z"
         style="fill:#294573;fill-opacity:1;fill-rule:nonzero;stroke:none"
         id="path18"
         inkscape:connector-curvature="0" /></g><g
       id="g20"
       transform="translate(66.3464,32.2683)"><path
         d="M 0,0 0.021,-29.664 25.585,-14.813 25.563,14.852 0,0 Z"
         style="fill:#294573;fill-opacity:1;fill-rule:nonzero;stroke:none"
         id="path22"
         inkscape:connector-curvature="0" /></g><g
       id="g24"
       transform="translate(92.0183,90.6663)"><path
         d="M 0,0 -25.563,-14.85 -25.542,-44.515 0.022,-29.664 0,0 Z"
         style="fill:#1e2e56;fill-opacity:1;fill-rule:nonzero;stroke:none"
         id="path26"
         inkscape:connector-curvature="0" /></g><g
       id="g28"
       transform="translate(3.5998,68.5984)"><path
         d="M 0,0 25.585,-14.814 51.148,0.037 25.563,14.85 0,0 Z"
         style="fill:#1e2e56;fill-opacity:1;fill-rule:nonzero;stroke:none"
         id="path30"
         inkscape:connector-curvature="0" /></g><g
       id="g32"
       transform="translate(66.3679,2.6048)"><path
         d="M 0,0 -0.021,29.664 -25.606,44.478 -25.585,14.814 0,0 Z"
         style="fill:#1e2e56;fill-opacity:1;fill-rule:nonzero;stroke:none"
         id="path34"
         inkscape:connector-curvature="0" /></g><g
       id="g36"
       transform="translate(40.8703,90.6287)"><path
         d="m 0,0 25.585,-14.813 0.021,-29.665 -9.119,5.282 -0.014,18.664 L 0.007,-11 0,0 Z"
         style="fill:#8ad59f;fill-opacity:1;fill-rule:nonzero;stroke:none"
         id="path38"
         inkscape:connector-curvature="0" /></g><g
       id="g40"
       transform="translate(29.2053,24.1209)"><path
         d="M 0,0 -0.021,29.664 25.543,44.515 25.551,34.207 8.869,24.516 8.883,5.161 0,0 Z"
         style="fill:#8ad59f;fill-opacity:1;fill-rule:nonzero;stroke:none"
         id="path42"
         inkscape:connector-curvature="0" /></g><g
       id="g44"
       transform="translate(91.9094,47.1199)"><path
         d="m 0,0 -25.563,-14.852 -25.585,14.814 9.48,5.507 16.326,-9.453 L -9.258,5.359 0,0 Z"
         style="fill:#8ad59f;fill-opacity:1;fill-rule:nonzero;stroke:none"
         id="path46"
         inkscape:connector-curvature="0" /></g><g
       id="g48"
       transform="translate(116.7561,77.0174)"><path
         d="m 0,0 37.396,0 0,-7.123 -26.355,-30.897 27.691,0 0,-8.013 -40.513,0 0,7.123 L 23.684,-8.013 0,-8.013 0,0 Z"
         style="fill:#1e2e56;fill-opacity:1;fill-rule:nonzero;stroke:none"
         id="path50"
         inkscape:connector-curvature="0" /></g><g
       id="g52"><g
         id="g54"
         clip-path="url(#clipPath56)"><g
           id="g60"
           transform="translate(193.5959,58.0525)"><path
             d="m 0,0 c -0.119,1.602 -0.46,3.145 -1.023,4.629 -0.566,1.484 -1.336,2.774 -2.316,3.874 -0.979,1.097 -2.167,1.988 -3.561,2.671 -1.395,0.681 -2.954,1.024 -4.675,1.024 -1.78,0 -3.399,-0.312 -4.852,-0.935 -1.456,-0.623 -2.702,-1.485 -3.74,-2.582 -1.04,-1.099 -1.87,-2.39 -2.493,-3.873 C -23.283,3.323 -23.625,1.72 -23.684,0 L 0,0 Z m -23.684,-6.678 c 0,-1.781 0.252,-3.503 0.757,-5.165 0.503,-1.662 1.26,-3.116 2.27,-4.363 1.009,-1.246 2.285,-2.241 3.829,-2.982 1.543,-0.744 3.384,-1.113 5.52,-1.113 2.968,0 5.356,0.637 7.168,1.914 1.81,1.276 3.161,3.19 4.051,5.743 l 9.616,0 c -0.534,-2.493 -1.455,-4.719 -2.76,-6.678 -1.306,-1.959 -2.879,-3.606 -4.719,-4.941 -1.84,-1.336 -3.903,-2.346 -6.188,-3.028 -2.286,-0.682 -4.674,-1.024 -7.168,-1.024 -3.621,0 -6.826,0.594 -9.616,1.781 -2.79,1.187 -5.15,2.849 -7.078,4.986 -1.93,2.137 -3.384,4.688 -4.363,7.657 -0.98,2.968 -1.469,6.233 -1.469,9.794 0,3.264 0.519,6.368 1.558,9.305 1.038,2.938 2.522,5.521 4.452,7.746 1.928,2.226 4.259,3.992 6.989,5.298 2.73,1.305 5.817,1.959 9.26,1.959 3.62,0 6.87,-0.756 9.75,-2.27 2.878,-1.514 5.267,-3.517 7.167,-6.011 1.899,-2.492 3.28,-5.357 4.14,-8.591 0.86,-3.236 1.083,-6.576 0.668,-10.017 l -33.834,0 z"
             style="fill:#1e2e56;fill-opacity:1;fill-rule:nonzero;stroke:none"
             id="path62"
             inkscape:connector-curvature="0" /></g><g
           id="g64"
           transform="translate(212.3835,77.0174)"><path
             d="m 0,0 9.616,0 0,-6.767 0.178,-0.178 c 1.543,2.551 3.561,4.555 6.055,6.01 2.492,1.454 5.253,2.182 8.28,2.182 5.045,0 9.022,-1.307 11.931,-3.918 2.909,-2.613 4.363,-6.531 4.363,-11.753 l 0,-31.609 -10.151,0 0,28.938 c -0.119,3.619 -0.89,6.246 -2.314,7.88 -1.425,1.631 -3.65,2.448 -6.679,2.448 -1.722,0 -3.264,-0.312 -4.629,-0.935 -1.366,-0.623 -2.524,-1.485 -3.472,-2.582 -0.951,-1.099 -1.693,-2.39 -2.226,-3.873 -0.535,-1.485 -0.802,-3.058 -0.802,-4.719 l 0,-27.157 -10.15,0 L 0,0 Z"
             style="fill:#1e2e56;fill-opacity:1;fill-rule:nonzero;stroke:none"
             id="path66"
             inkscape:connector-curvature="0" /></g><g
           id="g68"
           transform="translate(297.5915,62.593)"><path
             d="m 0,0 c -0.178,2.017 -0.698,3.798 -1.558,5.342 -0.861,1.543 -1.974,2.819 -3.338,3.829 -1.367,1.008 -2.954,1.781 -4.765,2.315 -1.811,0.534 -3.754,0.801 -5.831,0.801 -2.85,0 -5.373,-0.579 -7.569,-1.736 -2.196,-1.157 -4.037,-2.702 -5.52,-4.63 -1.484,-1.93 -2.612,-4.127 -3.383,-6.589 -0.772,-2.463 -1.158,-5.001 -1.158,-7.613 0,-3.087 0.356,-5.936 1.069,-8.547 0.712,-2.613 1.81,-4.883 3.294,-6.812 1.483,-1.929 3.323,-3.428 5.521,-4.496 2.195,-1.069 4.777,-1.603 7.746,-1.603 2.137,0 4.11,0.356 5.921,1.068 1.81,0.713 3.413,1.692 4.808,2.939 1.394,1.247 2.538,2.745 3.428,4.496 0.89,1.75 1.483,3.665 1.78,5.743 l 3.384,0 c -0.356,-2.731 -1.099,-5.164 -2.226,-7.301 -1.128,-2.137 -2.553,-3.933 -4.274,-5.387 -1.722,-1.455 -3.681,-2.568 -5.876,-3.339 -2.197,-0.771 -4.512,-1.157 -6.945,-1.157 -3.74,0 -6.931,0.667 -9.571,2.003 -2.643,1.336 -4.809,3.13 -6.501,5.387 -1.691,2.255 -2.938,4.852 -3.739,7.79 -0.802,2.939 -1.202,6.011 -1.202,9.216 0,3.206 0.459,6.233 1.38,9.082 0.919,2.849 2.271,5.343 4.051,7.48 1.781,2.136 3.976,3.828 6.589,5.074 2.611,1.247 5.61,1.87 8.993,1.87 2.492,0 4.822,-0.311 6.989,-0.934 2.167,-0.624 4.096,-1.559 5.788,-2.805 C -1.024,10.239 0.356,8.65 1.425,6.722 2.493,4.792 3.146,2.552 3.384,0 L 0,0 Z"
             style="fill:#1e2e56;fill-opacity:1;fill-rule:nonzero;stroke:none"
             id="path70"
             inkscape:connector-curvature="0" /></g><g
           id="g72"
           transform="translate(340.5969,56.9832)"><path
             d="m 0,0 c -0.832,-1.01 -2.092,-1.691 -3.784,-2.048 -1.692,-0.356 -3.577,-0.623 -5.654,-0.801 l -5.698,-0.534 c -1.663,-0.178 -3.325,-0.432 -4.987,-0.757 -1.662,-0.327 -3.16,-0.877 -4.496,-1.647 -1.335,-0.772 -2.419,-1.826 -3.25,-3.161 -0.832,-1.336 -1.247,-3.072 -1.247,-5.209 0,-3.384 1.069,-5.892 3.206,-7.524 2.137,-1.632 5.075,-2.448 8.815,-2.448 3.858,0 6.914,0.697 9.171,2.092 2.255,1.394 3.976,2.996 5.164,4.808 1.187,1.811 1.944,3.562 2.27,5.253 0.326,1.692 0.49,2.834 0.49,3.429 L 0,0 Z m 0,-16.917 -0.178,0 c -0.534,-1.366 -1.306,-2.657 -2.315,-3.874 -1.01,-1.216 -2.241,-2.3 -3.695,-3.249 -1.455,-0.951 -3.103,-1.692 -4.942,-2.226 -1.84,-0.534 -3.859,-0.801 -6.054,-0.801 -4.868,0 -8.637,1.054 -11.308,3.16 -2.672,2.107 -4.007,5.357 -4.007,9.75 0,2.671 0.534,4.853 1.603,6.544 1.068,1.692 2.418,3.028 4.051,4.008 1.633,0.979 3.442,1.675 5.432,2.092 1.988,0.414 3.902,0.712 5.742,0.89 l 5.254,0.446 c 2.433,0.177 4.347,0.458 5.743,0.845 1.394,0.386 2.448,0.919 3.16,1.603 0.713,0.681 1.158,1.558 1.336,2.626 0.178,1.069 0.267,2.405 0.267,4.007 0,1.247 -0.238,2.404 -0.713,3.472 -0.475,1.069 -1.216,2.018 -2.225,2.85 -1.01,0.831 -2.316,1.483 -3.918,1.959 -1.602,0.474 -3.562,0.712 -5.877,0.712 -4.095,0 -7.404,-1.01 -9.927,-3.027 -2.524,-2.019 -3.904,-5.075 -4.14,-9.171 l -3.384,0 c 0.237,5.044 1.855,8.829 4.853,11.352 2.996,2.523 7.256,3.784 12.777,3.784 5.52,0 9.541,-1.083 12.065,-3.25 2.522,-2.167 3.784,-5.001 3.784,-8.503 l 0,-26.623 c 0,-0.653 0.014,-1.306 0.044,-1.958 0.03,-0.654 0.134,-1.247 0.312,-1.781 0.177,-0.534 0.474,-0.966 0.89,-1.291 0.415,-0.327 1.009,-0.49 1.781,-0.49 0.592,0 1.424,0.089 2.493,0.268 l 0,-2.85 c -0.891,-0.238 -1.811,-0.356 -2.76,-0.356 -1.367,0 -2.449,0.178 -3.25,0.535 -0.801,0.355 -1.411,0.83 -1.825,1.424 -0.416,0.593 -0.699,1.291 -0.846,2.093 C 0.074,-21.146 0,-20.271 0,-19.321 l 0,2.404 z"
             style="fill:#1e2e56;fill-opacity:1;fill-rule:nonzero;stroke:none"
             id="path74"
             inkscape:connector-curvature="0" /></g><g
           id="g76"
           transform="translate(357.2478,46.2097)"><path
             d="m 0,0 c 0.118,-2.137 0.593,-4.022 1.425,-5.654 0.83,-1.633 1.914,-3.027 3.25,-4.185 1.335,-1.157 2.893,-2.034 4.674,-2.627 1.781,-0.593 3.709,-0.89 5.787,-0.89 1.483,0 3.072,0.134 4.764,0.401 1.692,0.267 3.264,0.757 4.719,1.469 1.454,0.713 2.656,1.706 3.606,2.983 0.949,1.275 1.425,2.894 1.425,4.852 0,2.552 -0.773,4.482 -2.315,5.788 -1.544,1.305 -3.488,2.315 -5.833,3.028 -2.345,0.711 -4.867,1.29 -7.567,1.735 -2.703,0.445 -5.224,1.114 -7.569,2.004 -2.345,0.891 -4.289,2.151 -5.831,3.784 -1.545,1.632 -2.316,4.021 -2.316,7.167 0,2.256 0.504,4.142 1.514,5.655 1.009,1.513 2.299,2.715 3.872,3.605 1.573,0.891 3.34,1.528 5.299,1.915 1.959,0.386 3.917,0.578 5.877,0.578 2.373,0 4.599,-0.266 6.677,-0.8 2.077,-0.535 3.874,-1.396 5.387,-2.583 1.514,-1.188 2.7,-2.701 3.561,-4.54 0.86,-1.842 1.292,-4.067 1.292,-6.678 l -3.384,0 c 0,2.077 -0.342,3.858 -1.024,5.342 -0.683,1.483 -1.633,2.685 -2.849,3.606 -1.217,0.92 -2.657,1.603 -4.318,2.048 -1.663,0.445 -3.444,0.667 -5.342,0.667 -1.545,0 -3.103,-0.148 -4.675,-0.445 C 8.533,27.927 7.124,27.424 5.876,26.712 4.63,25.999 3.605,25.078 2.805,23.951 2.003,22.823 1.603,21.459 1.603,19.855 c 0,-1.84 0.445,-3.324 1.335,-4.451 C 3.829,14.276 5,13.37 6.455,12.688 c 1.454,-0.683 3.086,-1.233 4.898,-1.647 1.809,-0.416 3.635,-0.832 5.476,-1.246 2.254,-0.417 4.377,-0.906 6.365,-1.47 1.988,-0.565 3.709,-1.335 5.165,-2.315 1.453,-0.98 2.596,-2.241 3.428,-3.784 0.831,-1.544 1.246,-3.503 1.246,-5.877 0,-2.493 -0.565,-4.54 -1.692,-6.143 -1.128,-1.602 -2.552,-2.894 -4.274,-3.873 -1.721,-0.979 -3.636,-1.661 -5.743,-2.048 -2.107,-0.386 -4.17,-0.579 -6.188,-0.579 -2.613,0 -5.03,0.342 -7.256,1.024 -2.226,0.682 -4.171,1.721 -5.832,3.116 -1.663,1.394 -2.969,3.101 -3.918,5.12 C -2.82,-5.017 -3.325,-2.671 -3.383,0 L 0,0 Z"
             style="fill:#1e2e56;fill-opacity:1;fill-rule:nonzero;stroke:none"
             id="path78"
             inkscape:connector-curvature="0" /></g><g
           id="g80"
           transform="translate(402.7453,94.5579)"><path
             d="m 0,0 0,-27.602 0.177,0 c 0.593,1.721 1.439,3.25 2.538,4.585 1.098,1.336 2.374,2.478 3.828,3.429 1.455,0.948 3.042,1.66 4.764,2.136 1.721,0.475 3.473,0.712 5.254,0.712 2.671,0 4.941,-0.326 6.811,-0.979 1.87,-0.654 3.398,-1.514 4.586,-2.582 1.186,-1.068 2.121,-2.27 2.804,-3.606 0.682,-1.336 1.172,-2.686 1.469,-4.051 0.297,-1.366 0.475,-2.687 0.535,-3.962 0.058,-1.278 0.088,-2.391 0.088,-3.339 l 0,-28.315 -3.382,0 0,28.938 c 0,1.127 -0.09,2.552 -0.268,4.274 -0.178,1.721 -0.698,3.368 -1.558,4.941 -0.861,1.573 -2.167,2.923 -3.917,4.052 -1.752,1.126 -4.172,1.691 -7.257,1.691 -2.613,0 -4.929,-0.475 -6.945,-1.425 -2.019,-0.949 -3.74,-2.27 -5.164,-3.961 C 2.938,-26.756 1.854,-28.775 1.112,-31.119 0.37,-33.465 0,-36.032 0,-38.821 l 0,-24.753 -3.384,0 L -3.384,0 0,0 Z"
             style="fill:#1e2e56;fill-opacity:1;fill-rule:nonzero;stroke:none"
             id="path82"
             inkscape:connector-curvature="0" /></g></g></g></g></svg>