<?xml version="1.0" encoding="UTF-8" standalone="no"?>
<!-- Created with Inkscape (http://www.inkscape.org/) -->

<svg
   xmlns:dc="http://purl.org/dc/elements/1.1/"
   xmlns:cc="http://creativecommons.org/ns#"
   xmlns:rdf="http://www.w3.org/1999/02/22-rdf-syntax-ns#"
   xmlns:svg="http://www.w3.org/2000/svg"
   xmlns="http://www.w3.org/2000/svg"
   xmlns:sodipodi="http://sodipodi.sourceforge.net/DTD/sodipodi-0.dtd"
   xmlns:inkscape="http://www.inkscape.org/namespaces/inkscape"
   id="svg2"
   version="1.1"
   inkscape:version="0.91 r13725"
   xml:space="preserve"
   width="683"
   height="120"
   viewBox="0 0 683 120"
   sodipodi:docname="IPANDETEC.svg"><metadata
     id="metadata8"><rdf:RDF><cc:Work
         rdf:about=""><dc:format>image/svg+xml</dc:format><dc:type
           rdf:resource="http://purl.org/dc/dcmitype/StillImage" /><dc:title></dc:title></cc:Work></rdf:RDF></metadata><defs
     id="defs6"><clipPath
       clipPathUnits="userSpaceOnUse"
       id="clipPath20"><path
         d="M 0,216 612,216 612,0 0,0 0,216 Z"
         id="path22"
         inkscape:connector-curvature="0" /></clipPath></defs><sodipodi:namedview
     pagecolor="#ffffff"
     bordercolor="#666666"
     borderopacity="1"
     objecttolerance="10"
     gridtolerance="10"
     guidetolerance="10"
     inkscape:pageopacity="0"
     inkscape:pageshadow="2"
     inkscape:window-width="1619"
     inkscape:window-height="971"
     id="namedview4"
     showgrid="false"
     inkscape:zoom="1.3606029"
     inkscape:cx="390.25714"
     inkscape:cy="98.369636"
     inkscape:window-x="53"
     inkscape:window-y="24"
     inkscape:window-maximized="0"
     inkscape:current-layer="g10" /><g
     id="g10"
     inkscape:groupmode="layer"
     inkscape:label="IPANDETEC"
     transform="matrix(1.25,0,0,-1.25,0,120)"><path
       d="m 14.737647,28.388433 -14.45999996,0 0,65.756 14.45999996,0 0,-65.756 z"
       style="fill:#8cc63f;fill-opacity:1;fill-rule:nonzero;stroke:none"
       id="path14"
       inkscape:connector-curvature="0" /><g
       id="g16"
       transform="translate(-38.218353,-56.445567)"><g
         transform="translate(89.5122,119.6475)"
         id="g24"><path
           inkscape:connector-curvature="0"
           id="path26"
           style="fill:#8cc63f;fill-opacity:1;fill-rule:nonzero;stroke:none"
           d="m 0,0 c 1.662,0 3.253,0.123 4.791,0.367 1.537,0.246 2.885,0.722 4.054,1.427 1.164,0.707 2.102,1.706 2.808,2.995 0.706,1.288 1.057,2.977 1.057,5.064 0,2.086 -0.351,3.776 -1.057,5.066 -0.706,1.289 -1.644,2.286 -2.808,2.993 C 7.676,18.616 6.328,19.093 4.791,19.341 3.253,19.583 1.662,19.708 0,19.708 l -11.232,0 L -11.232,0 0,0 Z m 3.966,30.943 c 4.108,0 7.61,-0.599 10.495,-1.796 2.885,-1.197 5.236,-2.777 7.047,-4.742 1.81,-1.965 3.128,-4.207 3.959,-6.723 0.831,-2.519 1.241,-5.129 1.241,-7.829 0,-2.64 -0.41,-5.235 -1.241,-7.781 -0.831,-2.55 -2.149,-4.806 -3.959,-6.769 -1.811,-1.967 -4.162,-3.546 -7.047,-4.742 -2.885,-1.2 -6.387,-1.798 -10.495,-1.798 l -15.198,0 0,-23.576 -14.46,0 0,65.756 29.658,0 z" /></g><g
         transform="translate(153.8867,110.2524)"
         id="g28"><path
           inkscape:connector-curvature="0"
           id="path30"
           style="fill:#8cc63f;fill-opacity:1;fill-rule:nonzero;stroke:none"
           d="m 0,0 -8.287,24.129 -0.184,0 L -17.032,0 0,0 Z m -0.825,40.338 24.589,-65.756 -15.014,0 -4.975,14.644 -24.588,0 -5.153,-14.644 -14.556,0 24.868,65.756 14.829,0 z" /></g><g
         transform="translate(197.7271,150.5908)"
         id="g32"><path
           inkscape:connector-curvature="0"
           id="path34"
           style="fill:#8cc63f;fill-opacity:1;fill-rule:nonzero;stroke:none"
           d="m 0,0 27.444,-44.113 0.184,0 0,44.113 13.541,0 0,-65.756 -14.461,0 -27.349,44.021 -0.184,0 0,-44.021 -13.541,0 0,65.756 L 0,0 Z" /></g><g
         transform="translate(278.9546,96.9927)"
         id="g36"
         style="fill:#000000"><path
           inkscape:connector-curvature="0"
           id="path38"
           style="fill:#000000;fill-opacity:1;fill-rule:nonzero;stroke:none"
           d="m 0,0 c 2.084,0 4.114,0.335 6.079,1.012 1.965,0.676 3.711,1.795 5.248,3.362 1.531,1.565 2.767,3.605 3.68,6.125 0.927,2.515 1.384,5.584 1.384,9.208 0,3.314 -0.321,6.309 -0.962,8.978 -0.647,2.672 -1.71,4.96 -3.182,6.861 -1.472,1.905 -3.425,3.362 -5.847,4.376 -2.422,1.013 -5.42,1.518 -8.982,1.518 l -10.312,0 0,-41.44 L 0,0 Z m 1.009,53.598 c 4.239,0 8.187,-0.677 11.838,-2.026 3.651,-1.352 6.815,-3.378 9.486,-6.079 2.671,-2.702 4.755,-6.077 6.263,-10.13 1.501,-4.053 2.255,-8.811 2.255,-14.276 0,-4.788 -0.617,-9.208 -1.84,-13.262 C 27.783,3.774 25.925,0.275 23.438,-2.672 20.95,-5.619 17.851,-7.938 14.135,-9.625 10.418,-11.314 6.05,-12.158 1.009,-12.158 l -28.364,0 0,65.756 28.364,0 z" /></g><g
         transform="translate(369.0215,150.5908)"
         id="g40"
         style="fill:#000000"><path
           inkscape:connector-curvature="0"
           id="path42"
           style="fill:#000000;fill-opacity:1;fill-rule:nonzero;stroke:none"
           d="m 0,0 0,-12.158 -34.722,0 0,-14.089 31.868,0 0,-11.237 -31.868,0 0,-16.114 35.458,0 0,-12.158 -49.913,0 0,65.756 L 0,0 Z" /></g><g
         transform="translate(374.3643,138.4331)"
         id="g44"
         style="fill:#000000"><path
           inkscape:connector-curvature="0"
           id="path46"
           style="fill:#000000;fill-opacity:1;fill-rule:nonzero;stroke:none"
           d="m 0,0 0,12.158 53.873,0 0,-12.158 -19.708,0 0,-53.599 -14.455,0 L 19.71,0 0,0 Z" /></g><g
         transform="translate(486.8125,150.5908)"
         id="g48"
         style="fill:#000000"><path
           inkscape:connector-curvature="0"
           id="path50"
           style="fill:#000000;fill-opacity:1;fill-rule:nonzero;stroke:none"
           d="m 0,0 0,-12.158 -34.723,0 0,-14.089 31.868,0 0,-11.237 -31.868,0 0,-16.114 35.458,0 0,-12.158 -49.919,0 0,65.756 L 0,0 Z" /></g><g
         transform="translate(541.332,133.0469)"
         id="g52"
         style="fill:#000000"><path
           inkscape:connector-curvature="0"
           id="path54"
           style="fill:#000000;fill-opacity:1;fill-rule:nonzero;stroke:none"
           d="m 0,0 c -0.86,1.38 -1.936,2.593 -3.224,3.636 -1.288,1.046 -2.748,1.858 -4.374,2.442 -1.628,0.583 -3.331,0.874 -5.112,0.874 -3.253,0 -6.019,-0.628 -8.287,-1.887 -2.274,-1.259 -4.114,-2.947 -5.526,-5.065 -1.414,-2.119 -2.441,-4.531 -3.087,-7.23 -0.648,-2.703 -0.968,-5.494 -0.968,-8.38 0,-2.763 0.32,-5.451 0.968,-8.058 0.646,-2.61 1.673,-4.96 3.087,-7.047 1.412,-2.088 3.252,-3.761 5.526,-5.018 2.268,-1.259 5.034,-1.889 8.287,-1.889 4.423,0 7.872,1.349 10.359,4.054 2.488,2.701 4.007,6.262 4.559,10.682 l 13.999,0 C 15.839,-27 14.889,-30.715 13.351,-34.03 c -1.531,-3.316 -3.555,-6.14 -6.073,-8.473 -2.523,-2.333 -5.466,-4.114 -8.844,-5.342 -3.378,-1.225 -7.089,-1.841 -11.144,-1.841 -5.034,0 -9.563,0.875 -13.582,2.625 -4.025,1.75 -7.415,4.157 -10.175,7.229 -2.766,3.072 -4.886,6.677 -6.358,10.821 -1.472,4.144 -2.208,8.611 -2.208,13.401 0,4.911 0.736,9.469 2.208,13.675 1.472,4.206 3.592,7.876 6.358,11.006 2.76,3.132 6.15,5.586 10.175,7.367 4.019,1.78 8.548,2.671 13.582,2.671 3.621,0 7.047,-0.522 10.271,-1.565 3.223,-1.044 6.108,-2.565 8.655,-4.559 2.547,-1.995 4.654,-4.467 6.31,-7.414 1.657,-2.946 2.701,-6.323 3.128,-10.13 l -13.998,0 C 1.413,-2.902 0.861,-1.383 0,0" /></g><g
         transform="translate(546.3369,84.6284)"
         id="g56"><path
           inkscape:connector-curvature="0"
           id="path58"
           style="fill:none;stroke:#8cc63f;stroke-width:12.74699974;stroke-linecap:round;stroke-linejoin:round;stroke-miterlimit:10;stroke-dasharray:none;stroke-opacity:1"
           d="M 0,0 -0.179,19.759 19.043,19.65" /></g><g
         transform="translate(551.1396,99.9868)"
         id="g60"><path
           inkscape:connector-curvature="0"
           id="path62"
           style="fill:none;stroke:#8cc63f;stroke-width:13.92800045;stroke-linecap:round;stroke-linejoin:round;stroke-miterlimit:10;stroke-dasharray:none;stroke-opacity:1"
           d="M 0,0 26.784,-26.415" /></g><path
         inkscape:connector-curvature="0"
         id="path64"
         style="fill:#000000;fill-opacity:1;fill-rule:nonzero;stroke:none"
         d="m 40.21,58.971 -1.751,0 0,12.419 1.751,0 0,-12.419 z" /><g
         transform="translate(43.25,58.9712)"
         id="g66"
         style="fill:#000000"><path
           inkscape:connector-curvature="0"
           id="path68"
           style="fill:#000000;fill-opacity:1;fill-rule:nonzero;stroke:none"
           d="m 0,0 0,12.419 1.917,0 4.298,-6.284 C 7.189,4.681 7.99,3.372 8.614,2.099 L 8.667,2.116 C 8.507,3.779 8.465,5.292 8.465,7.222 l 0,5.197 1.639,0 L 10.104,0 8.346,0 4.078,6.301 C 3.14,7.684 2.238,9.101 1.573,10.445 L 1.52,10.427 C 1.615,8.86 1.639,7.37 1.639,5.304 L 1.639,0 0,0 Z" /></g><g
         transform="translate(56.1675,60.9277)"
         id="g70"
         style="fill:#000000"><path
           inkscape:connector-curvature="0"
           id="path72"
           style="fill:#000000;fill-opacity:1;fill-rule:nonzero;stroke:none"
           d="m 0,0 c 0.777,-0.463 1.899,-0.813 3.099,-0.813 1.775,0 2.814,0.866 2.814,2.113 0,1.145 -0.719,1.828 -2.535,2.451 -2.197,0.742 -3.556,1.808 -3.556,3.545 0,1.929 1.727,3.371 4.351,3.371 1.36,0 2.381,-0.297 2.956,-0.611 L 6.649,8.747 C 6.233,8.987 5.331,9.337 4.114,9.337 2.28,9.337 1.567,8.325 1.567,7.473 1.567,6.313 2.393,5.746 4.256,5.081 6.53,4.274 7.67,3.259 7.67,1.436 c 0,-1.917 -1.52,-3.597 -4.69,-3.597 -1.3,0 -2.725,0.368 -3.437,0.813 L 0,0 Z" /></g><g
         transform="translate(68.7886,70.0273)"
         id="g74"
         style="fill:#000000"><path
           inkscape:connector-curvature="0"
           id="path76"
           style="fill:#000000;fill-opacity:1;fill-rule:nonzero;stroke:none"
           d="m 0,0 -4.09,0 0,1.363 9.967,0 0,-1.363 -4.12,0 0,-11.056 -1.757,0 L 0,0 Z" /></g><path
         inkscape:connector-curvature="0"
         id="path78"
         style="fill:#000000;fill-opacity:1;fill-rule:nonzero;stroke:none"
         d="m 77.895,58.971 -1.763,0 0,12.419 1.763,0 0,-12.419 z" /><g
         transform="translate(83.481,70.0273)"
         id="g80"
         style="fill:#000000"><path
           inkscape:connector-curvature="0"
           id="path82"
           style="fill:#000000;fill-opacity:1;fill-rule:nonzero;stroke:none"
           d="m 0,0 -4.09,0 0,1.363 9.961,0 0,-1.363 -4.108,0 0,-11.056 -1.763,0 L 0,0 Z" /></g><g
         transform="translate(92.5874,71.3901)"
         id="g84"
         style="fill:#000000"><path
           inkscape:connector-curvature="0"
           id="path86"
           style="fill:#000000;fill-opacity:1;fill-rule:nonzero;stroke:none"
           d="m 0,0 0,-7.373 c 0,-2.764 1.341,-3.945 3.14,-3.945 1.971,0 3.271,1.22 3.271,3.945 l 0,7.373 1.764,0 0,-7.263 c 0,-3.811 -2.179,-5.361 -5.094,-5.361 -2.761,0 -4.838,1.437 -4.838,5.307 L -1.757,0 0,0 Z" /></g><g
         transform="translate(106.3242,70.0273)"
         id="g88"
         style="fill:#000000"><path
           inkscape:connector-curvature="0"
           id="path90"
           style="fill:#000000;fill-opacity:1;fill-rule:nonzero;stroke:none"
           d="m 0,0 -4.09,0 0,1.363 9.955,0 0,-1.363 -4.102,0 0,-11.056 -1.763,0 L 0,0 Z" /></g><g
         transform="translate(114.1958,65.1245)"
         id="g92"
         style="fill:#000000"><path
           inkscape:connector-curvature="0"
           id="path94"
           style="fill:#000000;fill-opacity:1;fill-rule:nonzero;stroke:none"
           d="m 0,0 c 0,-2.672 1.562,-5.052 4.31,-5.052 2.754,0 4.321,2.345 4.321,5.164 C 8.631,2.6 7.225,5.176 4.333,5.176 1.431,5.176 0,2.707 0,0 m 10.466,0.184 c 0,-4.256 -2.82,-6.542 -6.251,-6.542 -3.574,0 -6.055,2.565 -6.055,6.316 0,3.948 2.635,6.527 6.233,6.527 3.698,0 6.073,-2.597 6.073,-6.301" /></g><g
         transform="translate(132.8838,65.2549)"
         id="g96"
         style="fill:#000000"><path
           inkscape:connector-curvature="0"
           id="path98"
           style="fill:#000000;fill-opacity:1;fill-rule:nonzero;stroke:none"
           d="m 0,0 c 0.38,-0.089 0.861,-0.13 1.437,-0.13 2.101,0 3.377,0.958 3.377,2.632 0,1.659 -1.276,2.452 -3.182,2.452 C 0.879,4.954 0.302,4.897 0,4.826 L 0,0 Z m -1.74,5.984 c 0.849,0.134 1.936,0.24 3.337,0.24 1.721,0 2.974,-0.365 3.775,-1.029 C 6.091,4.607 6.554,3.698 6.554,2.594 6.554,1.469 6.191,0.587 5.515,-0.053 4.571,-0.961 3.099,-1.422 1.401,-1.422 0.879,-1.422 0.398,-1.401 0,-1.312 l 0,-4.972 -1.74,0 0,12.268 z" /></g><g
         transform="translate(146.7036,64.127)"
         id="g100"
         style="fill:#000000"><path
           inkscape:connector-curvature="0"
           id="path102"
           style="fill:#000000;fill-opacity:1;fill-rule:nonzero;stroke:none"
           d="M 0,0 -1.335,3.58 C -1.638,4.39 -1.84,5.126 -2.036,5.842 l -0.042,0 C -2.28,5.126 -2.481,4.349 -2.754,3.597 L -4.072,0 0,0 Z m -4.44,-1.25 -1.395,-3.906 -1.793,0 4.595,12.419 2.072,0 4.594,-12.419 -1.858,0 -1.442,3.906 -4.773,0 z" /></g><g
         transform="translate(152.3135,58.9712)"
         id="g104"
         style="fill:#000000"><path
           inkscape:connector-curvature="0"
           id="path106"
           style="fill:#000000;fill-opacity:1;fill-rule:nonzero;stroke:none"
           d="m 0,0 0,12.419 1.917,0 4.292,-6.284 C 7.189,4.681 7.991,3.372 8.602,2.099 L 8.667,2.116 C 8.501,3.779 8.465,5.292 8.465,7.222 l 0,5.197 1.639,0 L 10.104,0 8.353,0 4.072,6.301 C 3.134,7.684 2.238,9.101 1.573,10.445 L 1.514,10.427 C 1.615,8.86 1.639,7.37 1.639,5.304 L 1.639,0 0,0 Z" /></g><g
         transform="translate(172.0635,64.127)"
         id="g108"
         style="fill:#000000"><path
           inkscape:connector-curvature="0"
           id="path110"
           style="fill:#000000;fill-opacity:1;fill-rule:nonzero;stroke:none"
           d="m 0,0 -1.341,3.58 c -0.297,0.81 -0.493,1.546 -0.701,2.262 l -0.041,0 C -2.279,5.126 -2.481,4.349 -2.76,3.597 L -4.072,0 0,0 Z m -4.434,-1.25 -1.401,-3.906 -1.799,0 4.589,12.419 2.084,0 4.595,-12.419 -1.859,0 -1.436,3.906 -4.773,0 z" /></g><g
         transform="translate(188.9414,64.4243)"
         id="g112"
         style="fill:#000000"><path
           inkscape:connector-curvature="0"
           id="path114"
           style="fill:#000000;fill-opacity:1;fill-rule:nonzero;stroke:none"
           d="m 0,0 c -0.107,1.733 -0.226,3.834 -0.226,5.363 l -0.047,0 C -0.742,3.923 -1.282,2.359 -1.959,0.646 l -2.387,-6.025 -1.312,0 -2.196,5.913 C -8.489,2.3 -9.018,3.888 -9.392,5.363 l -0.041,0 C -9.475,3.813 -9.57,1.748 -9.694,-0.131 l -0.357,-5.322 -1.656,0 0.938,12.419 2.22,0 2.298,-6.008 c 0.558,-1.528 0.991,-2.894 1.347,-4.182 l 0.042,0 c 0.362,1.252 0.843,2.612 1.443,4.182 l 2.392,6.008 2.22,0 0.837,-12.419 -1.721,0 L 0,0 Z" /></g><g
         transform="translate(200.6006,64.7944)"
         id="g116"
         style="fill:#000000"><path
           inkscape:connector-curvature="0"
           id="path118"
           style="fill:#000000;fill-opacity:1;fill-rule:nonzero;stroke:none"
           d="m 0,0 -5.219,0 0,-4.479 5.83,0 0,-1.344 -7.587,0 0,12.419 7.285,0 0,-1.345 -5.528,0 0,-3.924 L 0,1.327 0,0 Z" /></g><g
         transform="translate(206.145,72.144)"
         id="g120"
         style="fill:#000000"><path
           inkscape:connector-curvature="0"
           id="path122"
           style="fill:#000000;fill-opacity:1;fill-rule:nonzero;stroke:none"
           d="m 0,0 c -0.018,1.125 0.499,1.878 1.365,1.878 0.44,0 0.755,-0.165 1.17,-0.367 0.32,-0.167 0.641,-0.333 0.962,-0.333 0.296,0 0.474,0.131 0.54,0.719 l 0.914,0 C 4.975,0.733 4.535,0.11 3.615,0.11 3.193,0.11 2.837,0.261 2.398,0.46 2.018,0.644 1.739,0.811 1.455,0.811 1.14,0.811 0.997,0.499 0.938,0 L 0,0 Z m -2.671,-13.173 0,12.419 1.917,0 4.286,-6.284 c 0.979,-1.454 1.775,-2.763 2.398,-4.036 l 0.06,0.017 C 5.83,-9.394 5.788,-7.88 5.788,-5.951 l 0,5.197 1.644,0 0,-12.419 -1.763,0 -4.268,6.301 c -0.938,1.383 -1.846,2.8 -2.5,4.144 l -0.059,-0.018 c 0.101,-1.567 0.119,-3.057 0.119,-5.123 l 0,-5.304 -1.632,0 z" /></g><g
         transform="translate(217.6436,65.1245)"
         id="g124"
         style="fill:#000000"><path
           inkscape:connector-curvature="0"
           id="path126"
           style="fill:#000000;fill-opacity:1;fill-rule:nonzero;stroke:none"
           d="m 0,0 c 0,-2.672 1.562,-5.052 4.316,-5.052 2.76,0 4.316,2.345 4.316,5.164 C 8.632,2.6 7.237,5.176 4.333,5.176 1.443,5.176 0,2.707 0,0 m 10.466,0.184 c 0,-4.256 -2.814,-6.542 -6.245,-6.542 -3.579,0 -6.055,2.565 -6.055,6.316 0,3.948 2.635,6.527 6.233,6.527 3.698,0 6.067,-2.597 6.067,-6.301" /></g><g
         transform="translate(236.3374,60.2241)"
         id="g128"
         style="fill:#000000"><path
           inkscape:connector-curvature="0"
           id="path130"
           style="fill:#000000;fill-opacity:1;fill-rule:nonzero;stroke:none"
           d="m 0,0 c 0.434,-0.056 1.075,-0.075 1.757,-0.075 3.734,0 5.735,1.918 5.735,5.272 C 7.51,8.123 5.711,9.984 2.03,9.984 1.14,9.984 0.457,9.911 0,9.822 L 0,0 Z m -1.739,10.979 c 1.062,0.169 2.315,0.276 3.698,0.276 2.494,0 4.274,-0.552 5.45,-1.547 C 8.631,8.694 9.326,7.257 9.326,5.25 9.326,3.224 8.631,1.563 7.391,0.424 6.115,-0.74 4.031,-1.365 1.419,-1.365 c -1.259,0 -2.274,0.056 -3.158,0.148 l 0,12.196 z" /></g><g
         transform="translate(254.8477,64.7944)"
         id="g132"
         style="fill:#000000"><path
           inkscape:connector-curvature="0"
           id="path134"
           style="fill:#000000;fill-opacity:1;fill-rule:nonzero;stroke:none"
           d="m 0,0 -5.213,0 0,-4.479 5.83,0 0,-1.344 -7.587,0 0,12.419 7.29,0 0,-1.345 -5.533,0 0,-3.924 L 0,1.327 0,0 Z" /></g><g
         transform="translate(263.6987,60.2241)"
         id="g136"
         style="fill:#000000"><path
           inkscape:connector-curvature="0"
           id="path138"
           style="fill:#000000;fill-opacity:1;fill-rule:nonzero;stroke:none"
           d="m 0,0 c 0.433,-0.056 1.074,-0.075 1.745,-0.075 3.734,0 5.734,1.918 5.734,5.272 C 7.503,8.123 5.705,9.984 2.03,9.984 1.133,9.984 0.451,9.911 0,9.822 L 0,0 Z m -1.74,10.979 c 1.056,0.169 2.309,0.276 3.686,0.276 2.494,0 4.275,-0.552 5.45,-1.547 C 8.619,8.694 9.32,7.257 9.32,5.25 9.32,3.224 8.619,1.563 7.379,0.424 6.103,-0.74 4.03,-1.365 1.406,-1.365 c -1.258,0 -2.273,0.056 -3.146,0.148 l 0,12.196 z" /></g><g
         transform="translate(282.2021,64.7944)"
         id="g140"
         style="fill:#000000"><path
           inkscape:connector-curvature="0"
           id="path142"
           style="fill:#000000;fill-opacity:1;fill-rule:nonzero;stroke:none"
           d="m 0,0 -5.212,0 0,-4.479 5.829,0 0,-1.344 -7.581,0 0,12.419 7.29,0 0,-1.345 -5.538,0 0,-3.924 L 0,1.327 0,0 Z" /></g><g
         transform="translate(286.8086,65.5693)"
         id="g144"
         style="fill:#000000"><path
           inkscape:connector-curvature="0"
           id="path146"
           style="fill:#000000;fill-opacity:1;fill-rule:nonzero;stroke:none"
           d="M 0,0 1.781,0 C 3.639,0 4.815,0.936 4.815,2.357 4.815,3.96 3.556,4.66 1.722,4.66 0.884,4.66 0.303,4.607 0,4.529 L 0,0 Z M -1.733,5.652 C -0.854,5.803 0.428,5.91 1.597,5.91 3.456,5.91 4.678,5.581 5.498,4.898 6.156,4.346 6.554,3.497 6.554,2.52 6.554,0.899 5.438,-0.187 4.037,-0.629 l 0,-0.054 C 5.058,-1.015 5.675,-1.9 5.996,-3.188 6.436,-4.921 6.755,-6.12 7.041,-6.598 l -1.811,0 C 5.022,-6.233 4.72,-5.18 4.363,-3.633 3.96,-1.917 3.224,-1.276 1.645,-1.223 l -1.645,0 0,-5.375 -1.733,0 0,12.25 z" /></g><g
         transform="translate(302.7725,64.7944)"
         id="g148"
         style="fill:#000000"><path
           inkscape:connector-curvature="0"
           id="path150"
           style="fill:#000000;fill-opacity:1;fill-rule:nonzero;stroke:none"
           d="m 0,0 -5.213,0 0,-4.479 5.83,0 0,-1.344 -7.587,0 0,12.419 7.29,0 0,-1.345 -5.533,0 0,-3.924 L 0,1.327 0,0 Z" /></g><g
         transform="translate(315.0244,59.3569)"
         id="g152"
         style="fill:#000000"><path
           inkscape:connector-curvature="0"
           id="path154"
           style="fill:#000000;fill-opacity:1;fill-rule:nonzero;stroke:none"
           d="m 0,0 c -0.617,-0.294 -1.912,-0.59 -3.556,-0.59 -3.788,0 -6.625,2.214 -6.625,6.304 0,3.906 2.855,6.524 7.029,6.524 1.663,0 2.737,-0.332 3.193,-0.558 l -0.433,-1.306 c -0.64,0.296 -1.579,0.517 -2.695,0.517 -3.164,0 -5.26,-1.865 -5.26,-5.123 0,-3.058 1.9,-4.993 5.159,-4.993 1.081,0 2.156,0.205 2.85,0.517 L 0,0 Z" /></g><g
         transform="translate(318.9609,71.3901)"
         id="g156"
         style="fill:#000000"><path
           inkscape:connector-curvature="0"
           id="path158"
           style="fill:#000000;fill-opacity:1;fill-rule:nonzero;stroke:none"
           d="m 0,0 0,-5.197 6.512,0 0,5.197 1.751,0 0,-12.419 -1.751,0 0,5.823 -6.512,0 0,-5.823 -1.758,0 L -1.758,0 0,0 Z" /></g><g
         transform="translate(331.2842,65.1245)"
         id="g160"
         style="fill:#000000"><path
           inkscape:connector-curvature="0"
           id="path162"
           style="fill:#000000;fill-opacity:1;fill-rule:nonzero;stroke:none"
           d="m 0,0 c 0,-2.672 1.556,-5.052 4.31,-5.052 2.76,0 4.316,2.345 4.316,5.164 C 8.626,2.6 7.23,5.176 4.327,5.176 1.438,5.176 0,2.707 0,0 m 10.46,0.184 c 0,-4.256 -2.814,-6.542 -6.25,-6.542 -3.574,0 -6.044,2.565 -6.044,6.316 0,3.948 2.63,6.527 6.227,6.527 3.699,0 6.067,-2.597 6.067,-6.301" /></g><g
         transform="translate(350.3047,58.9712)"
         id="g164"
         style="fill:#000000"><path
           inkscape:connector-curvature="0"
           id="path166"
           style="fill:#000000;fill-opacity:1;fill-rule:nonzero;stroke:none"
           d="m 0,0 0,5.269 -4.269,7.15 2.001,0 1.888,-3.428 C 0.124,8.053 0.54,7.293 0.962,6.432 l 0.041,0 C 1.371,7.24 1.841,8.053 2.362,8.991 l 1.93,3.428 1.965,0 L 1.758,5.292 1.758,0 0,0 Z" /></g><g
         transform="translate(362.3496,58.9712)"
         id="g168"
         style="fill:#000000"><path
           inkscape:connector-curvature="0"
           id="path170"
           style="fill:#000000;fill-opacity:1;fill-rule:nonzero;stroke:none"
           d="m 0,0 0,12.419 1.917,0 4.292,-6.284 C 7.189,4.681 7.996,3.372 8.607,2.099 l 0.06,0.017 C 8.513,3.779 8.472,5.292 8.472,7.222 l 0,5.197 1.637,0 L 10.109,0 8.347,0 4.078,6.301 c -0.937,1.383 -1.84,2.8 -2.499,4.144 L 1.514,10.427 C 1.621,8.86 1.645,7.37 1.645,5.304 L 1.645,0 0,0 Z" /></g><g
         transform="translate(377.2266,71.3901)"
         id="g172"
         style="fill:#000000"><path
           inkscape:connector-curvature="0"
           id="path174"
           style="fill:#000000;fill-opacity:1;fill-rule:nonzero;stroke:none"
           d="m 0,0 0,-7.373 c 0,-2.764 1.336,-3.945 3.14,-3.945 1.964,0 3.271,1.22 3.271,3.945 l 0,7.373 1.758,0 0,-7.263 c 0,-3.811 -2.174,-5.361 -5.089,-5.361 -2.76,0 -4.843,1.437 -4.843,5.307 L -1.763,0 0,0 Z" /></g><g
         transform="translate(395.3564,64.7944)"
         id="g176"
         style="fill:#000000"><path
           inkscape:connector-curvature="0"
           id="path178"
           style="fill:#000000;fill-opacity:1;fill-rule:nonzero;stroke:none"
           d="m 0,0 -5.212,0 0,-4.479 5.829,0 0,-1.344 -7.581,0 0,12.419 7.284,0 0,-1.345 -5.532,0 0,-3.924 L 0,1.327 0,0 Z" /></g><g
         transform="translate(401.3701,58.9712)"
         id="g180"
         style="fill:#000000"><path
           inkscape:connector-curvature="0"
           id="path182"
           style="fill:#000000;fill-opacity:1;fill-rule:nonzero;stroke:none"
           d="m 0,0 -4.412,12.419 1.889,0 2.094,-6.118 C 0.136,4.627 0.635,3.114 1.015,1.656 l 0.041,0 c 0.381,1.44 0.921,3.004 1.538,4.628 l 2.279,6.135 1.853,0 L 1.917,0 0,0 Z" /></g><g
         transform="translate(415.0234,64.127)"
         id="g184"
         style="fill:#000000"><path
           inkscape:connector-curvature="0"
           id="path186"
           style="fill:#000000;fill-opacity:1;fill-rule:nonzero;stroke:none"
           d="m 0,0 -1.336,3.58 c -0.296,0.81 -0.498,1.546 -0.7,2.262 l -0.042,0 C -2.273,5.126 -2.47,4.349 -2.755,3.597 L -4.073,0 0,0 Z m -4.435,-1.25 -1.395,-3.906 -1.798,0 4.595,12.419 2.071,0 4.595,-12.419 -1.852,0 -1.436,3.906 -4.78,0 z" /></g><g
         transform="translate(420.4131,60.9277)"
         id="g188"
         style="fill:#000000"><path
           inkscape:connector-curvature="0"
           id="path190"
           style="fill:#000000;fill-opacity:1;fill-rule:nonzero;stroke:none"
           d="m 0,0 c 0.778,-0.463 1.895,-0.813 3.099,-0.813 1.776,0 2.814,0.866 2.814,2.113 0,1.145 -0.719,1.828 -2.535,2.451 -2.196,0.742 -3.55,1.808 -3.55,3.545 0,1.929 1.734,3.371 4.346,3.371 1.359,0 2.38,-0.297 2.956,-0.611 L 6.655,8.747 C 6.234,8.987 5.337,9.337 4.12,9.337 2.28,9.337 1.58,8.325 1.58,7.473 1.58,6.313 2.398,5.746 4.251,5.081 6.536,4.274 7.665,3.259 7.665,1.436 c 0,-1.917 -1.509,-3.597 -4.689,-3.597 -1.295,0 -2.714,0.368 -3.432,0.813 L 0,0 Z" /></g><g
         transform="translate(436.4541,70.0273)"
         id="g192"
         style="fill:#000000"><path
           inkscape:connector-curvature="0"
           id="path194"
           style="fill:#000000;fill-opacity:1;fill-rule:nonzero;stroke:none"
           d="m 0,0 -4.103,0 0,1.363 9.974,0 0,-1.363 -4.114,0 0,-11.056 -1.757,0 L 0,0 Z" /></g><g
         transform="translate(450.7656,64.7944)"
         id="g196"
         style="fill:#000000"><path
           inkscape:connector-curvature="0"
           id="path198"
           style="fill:#000000;fill-opacity:1;fill-rule:nonzero;stroke:none"
           d="m 0,0 -5.212,0 0,-4.479 5.836,0 0,-1.344 -7.593,0 0,12.419 7.29,0 0,-1.345 -5.533,0 0,-3.924 L 0,1.327 0,0 Z" /></g><g
         transform="translate(463.0313,59.3569)"
         id="g200"
         style="fill:#000000"><path
           inkscape:connector-curvature="0"
           id="path202"
           style="fill:#000000;fill-opacity:1;fill-rule:nonzero;stroke:none"
           d="m 0,0 c -0.617,-0.294 -1.924,-0.59 -3.563,-0.59 -3.792,0 -6.619,2.214 -6.619,6.304 0,3.906 2.844,6.524 7.024,6.524 1.662,0 2.731,-0.332 3.199,-0.558 l -0.45,-1.306 c -0.636,0.296 -1.574,0.517 -2.69,0.517 -3.153,0 -5.254,-1.865 -5.254,-5.123 0,-3.058 1.906,-4.993 5.159,-4.993 1.08,0 2.149,0.205 2.85,0.517 L 0,0 Z" /></g><g
         transform="translate(465.2275,58.9712)"
         id="g204"
         style="fill:#000000"><path
           inkscape:connector-curvature="0"
           id="path206"
           style="fill:#000000;fill-opacity:1;fill-rule:nonzero;stroke:none"
           d="m 0,0 0,12.419 1.911,0 4.298,-6.284 C 7.183,4.681 7.984,3.372 8.602,2.099 L 8.667,2.116 C 8.501,3.779 8.466,5.292 8.466,7.222 l 0,5.197 1.633,0 L 10.099,0 8.341,0 4.066,6.301 C 3.135,7.684 2.231,9.101 1.572,10.445 L 1.508,10.427 C 1.614,8.86 1.632,7.37 1.632,5.304 L 1.632,0 0,0 Z" /></g><g
         transform="translate(479.4033,65.1245)"
         id="g208"
         style="fill:#000000"><path
           inkscape:connector-curvature="0"
           id="path210"
           style="fill:#000000;fill-opacity:1;fill-rule:nonzero;stroke:none"
           d="m 0,0 c 0,-2.672 1.55,-5.052 4.316,-5.052 2.755,0 4.31,2.345 4.31,5.164 0,2.488 -1.4,5.064 -4.292,5.064 C 1.437,5.176 0,2.707 0,0 m 10.467,0.184 c 0,-4.256 -2.821,-6.542 -6.258,-6.542 -3.573,0 -6.055,2.565 -6.055,6.316 0,3.948 2.642,6.527 6.24,6.527 3.698,0 6.073,-2.597 6.073,-6.301" /></g><g
         transform="translate(492.0957,71.3901)"
         id="g212"
         style="fill:#000000"><path
           inkscape:connector-curvature="0"
           id="path214"
           style="fill:#000000;fill-opacity:1;fill-rule:nonzero;stroke:none"
           d="m 0,0 1.764,0 0,-11.074 5.746,0 0,-1.345 -7.51,0 L 0,0 Z" /></g><g
         transform="translate(501.8076,65.1245)"
         id="g216"
         style="fill:#000000"><path
           inkscape:connector-curvature="0"
           id="path218"
           style="fill:#000000;fill-opacity:1;fill-rule:nonzero;stroke:none"
           d="m 0,0 c 0,-2.672 1.555,-5.052 4.31,-5.052 2.754,0 4.316,2.345 4.316,5.164 C 8.626,2.6 7.225,5.176 4.333,5.176 1.432,5.176 0,2.707 0,0 m 10.46,0.184 c 0,-4.256 -2.814,-6.542 -6.252,-6.542 -3.572,0 -6.054,2.565 -6.054,6.316 0,3.948 2.642,6.527 6.239,6.527 3.693,0 6.067,-2.597 6.067,-6.301" /></g><g
         transform="translate(524.7871,59.5205)"
         id="g220"
         style="fill:#000000"><path
           inkscape:connector-curvature="0"
           id="path222"
           style="fill:#000000;fill-opacity:1;fill-rule:nonzero;stroke:none"
           d="m 0,0 c -0.783,-0.273 -2.338,-0.68 -4.155,-0.68 -2.036,0 -3.716,0.478 -5.04,1.641 -1.152,1.033 -1.87,2.69 -1.87,4.624 0,3.703 2.779,6.412 7.29,6.412 1.561,0 2.802,-0.314 3.372,-0.573 l -0.434,-1.302 c -0.718,0.311 -1.62,0.534 -2.974,0.534 -3.277,0 -5.419,-1.882 -5.419,-4.996 0,-3.149 2.036,-5.013 5.193,-5.013 1.141,0 1.918,0.148 2.322,0.332 l 0,3.705 -2.713,0 0,1.288 L 0,5.972 0,0 Z" /></g><path
         inkscape:connector-curvature="0"
         id="path224"
         style="fill:#000000;fill-opacity:1;fill-rule:nonzero;stroke:none"
         d="m 529.163,58.971 -1.758,0 0,12.419 1.758,0 0,-12.419 z" /><g
         transform="translate(538.8027,64.127)"
         id="g226"
         style="fill:#000000"><path
           inkscape:connector-curvature="0"
           id="path228"
           style="fill:#000000;fill-opacity:1;fill-rule:nonzero;stroke:none"
           d="m 0,0 -1.335,3.58 c -0.297,0.81 -0.499,1.546 -0.701,2.262 l -0.041,0 C -2.272,5.126 -2.475,4.349 -2.754,3.597 L -4.072,0 0,0 Z m -4.428,-1.25 -1.407,-3.906 -1.798,0 4.595,12.419 2.077,0 4.595,-12.419 -1.853,0 -1.442,3.906 -4.767,0 z" /></g><g
         transform="translate(544.1934,60.9277)"
         id="g230"
         style="fill:#000000"><path
           inkscape:connector-curvature="0"
           id="path232"
           style="fill:#000000;fill-opacity:1;fill-rule:nonzero;stroke:none"
           d="m 0,0 c 0.784,-0.463 1.899,-0.813 3.104,-0.813 1.77,0 2.815,0.866 2.815,2.113 0,1.145 -0.725,1.828 -2.541,2.451 -2.196,0.742 -3.563,1.808 -3.563,3.545 0,1.929 1.741,3.371 4.359,3.371 1.359,0 2.38,-0.297 2.95,-0.611 L 6.648,8.747 C 6.233,8.987 5.331,9.337 4.114,9.337 2.274,9.337 1.58,8.325 1.58,7.473 1.58,6.313 2.398,5.746 4.257,5.081 6.536,4.274 7.67,3.259 7.67,1.436 c 0,-1.917 -1.514,-3.597 -4.695,-3.597 -1.294,0 -2.719,0.368 -3.432,0.813 L 0,0 Z" /></g><g
         transform="translate(531.6348,74.1987)"
         id="g234"
         style="fill:#000000"><path
           inkscape:connector-curvature="0"
           id="path236"
           style="fill:#000000;fill-opacity:1;fill-rule:nonzero;stroke:none"
           d="m 0,0 -2.555,-2.155 -1.417,0 L -2.112,0 0,0 Z" /></g></g></g></svg>